# xmcd
#
# Track frame offsets: 
#        150
#        18557
#        38203
#        49939
#        69555
#        92310
#        121101
#        137309
#        161625
#        187283
#        209996
#        230735
#        255429
#        275413
#        297611
#
# Disc length: 4142 seconds
#
# Revision: 0
# Processed by: cddbd v1.5.2PL0 Copyright (c) Steve Scherf et al.
# Submitted via: ExactAudioCopy v1.0b3
#
DISCID=e4102c0f
DTITLE=Ray Charles - 17 Original Albums [CD5]
DYEAR=2015
DGENRE=Blues
TTITLE0=The Right Time (live)
TTITLE1=What'd I Say (live)
TTITLE2=Yes Indeed (live)
TTITLE3=The Spirit-Feel (live)
TTITLE4=Frenesi (live)
TTITLE5=Drown In My Own Tears (live)
TTITLE6=Tell The Truth (live)
TTITLE7=The Genius After Hours
TTITLE8=Ain't Misbehavin'
TTITLE9=Dawn Ray
TTITLE10=Joy Ride
TTITLE11=Hornful Soul
TTITLE12=The Man I Love
TTITLE13=Charlesville
TTITLE14=Music, Music, Music
EXTD=
EXTT0=
EXTT1=
EXTT2=
EXTT3=
EXTT4=
EXTT5=
EXTT6=
EXTT7=
EXTT8=
EXTT9=
EXTT10=
EXTT11=
EXTT12=
EXTT13=
EXTT14=
PLAYORDER=
